{
  "asset": { "version": "2.0" },
  "accessors": [
    { "bufferView": 0, "componentType": 5123, "count": 3417, "type": "SCALAR" },
    {
      "bufferView": 1,
      "componentType": 5126,
      "count": 581,
      "type": "VEC3",
      "max": [1.4407000541687012, 32.44070053100586, 4.65910005569458],
      "min": [-1.4407000541687012, 29.55929946899414, -5.898099899291992]
    },
    {
      "bufferView": 1,
      "byteOffset": 6972,
      "componentType": 5123,
      "count": 6240,
      "type": "SCALAR"
    },
    {
      "bufferView": 2,
      "componentType": 5126,
      "count": 1047,
      "type": "VEC3",
      "max": [1.4948999881744385, 31.0, 1.5],
      "min": [-1.4948999881744385, -0.0, -1.5]
    },
    {
      "bufferView": 2,
      "byteOffset": 12564,
      "componentType": 5123,
      "count": 36,
      "type": "SCALAR"
    },
    {
      "bufferView": 3,
      "componentType": 5126,
      "count": 8,
      "type": "VEC3",
      "max": [0.75, 7.03249979019165, 1.666700005531311],
      "min": [-0.75, 1.3658000230789185, 1.3344000577926636]
    },
    {
      "bufferView": 3,
      "byteOffset": 96,
      "componentType": 5123,
      "count": 13167,
      "type": "SCALAR"
    },
    {
      "bufferView": 4,
      "componentType": 5126,
      "count": 2265,
      "type": "VEC3",
      "max": [21.0, 32.42210006713867, 2.4400999546051025],
      "min": [0.0, 30.0310001373291, 1.1819000244140625]
    },
    {
      "bufferView": 4,
      "byteOffset": 27180,
      "componentType": 5123,
      "count": 13167,
      "type": "SCALAR"
    },
    {
      "bufferView": 5,
      "componentType": 5126,
      "count": 2268,
      "type": "VEC3",
      "max": [0.3788999915122986, 49.207401275634766, 2.023400068283081],
      "min": [-10.536100387573242, 30.781299591064453, 0.7652999758720398]
    },
    {
      "bufferView": 5,
      "byteOffset": 27216,
      "componentType": 5123,
      "count": 13167,
      "type": "SCALAR"
    },
    {
      "bufferView": 6,
      "componentType": 5126,
      "count": 2268,
      "type": "VEC3",
      "max": [0.3788999915122986, 31.218700408935547, 2.901400089263916],
      "min": [-10.536100387573242, 12.79259967803955, 1.6433000564575195]
    }
  ],
  "bufferViews": [
    { "buffer": 0, "byteOffset": 0, "byteLength": 6834, "target": 34963 },
    { "buffer": 0, "byteOffset": 6836, "byteLength": 19452, "target": 34963 },
    { "buffer": 0, "byteOffset": 26288, "byteLength": 12636, "target": 34963 },
    { "buffer": 0, "byteOffset": 38924, "byteLength": 26430, "target": 34963 },
    { "buffer": 0, "byteOffset": 65356, "byteLength": 53514, "target": 34963 },
    { "buffer": 0, "byteOffset": 118872, "byteLength": 53550, "target": 34963 },
    { "buffer": 0, "byteOffset": 172424, "byteLength": 27216, "target": 34963 }
  ],
  "buffers": [{ "byteLength": 199640, "uri": "Wind_Turbine 1.bin" }],
  "cameras": [
    {
      "perspective": {
        "znear": 10.0,
        "yfov": 0.5,
        "zfar": 0.10000000149011612,
        "aspectRatio": 1.2000000476837158
      },
      "type": "perspective",
      "name": "Default"
    },
    {
      "perspective": {
        "znear": 10.0,
        "yfov": 0.5,
        "zfar": 0.10000000149011612,
        "aspectRatio": 1.2000000476837158
      },
      "type": "perspective",
      "name": "Export"
    }
  ],
  "materials": [
    {
      "pbrMetallicRoughness": {
        "baseColorFactor": [
          0.9764705896377563, 0.9764705896377563, 0.9764705896377563, 1.0
        ],
        "metallicFactor": 0.20000000298023224,
        "roughnessFactor": 0.4000000059604645
      }
    },
    {
      "pbrMetallicRoughness": {
        "baseColorFactor": [
          0.9764705896377563, 0.9764705896377563, 0.9764705896377563, 1.0
        ],
        "metallicFactor": 0.20000000298023224,
        "roughnessFactor": 0.4000000059604645
      }
    },
    {
      "pbrMetallicRoughness": {
        "baseColorFactor": [0.0, 0.0, 0.0, 1.0],
        "metallicFactor": 0.20000000298023224,
        "roughnessFactor": 0.4000000059604645
      }
    }
  ],
  "meshes": [
    {
      "primitives": [
        { "attributes": { "POSITION": 1 }, "indices": 0, "material": 0 }
      ]
    },
    {
      "primitives": [
        { "attributes": { "POSITION": 3 }, "indices": 2, "material": 1 }
      ]
    },
    {
      "primitives": [
        { "attributes": { "POSITION": 5 }, "indices": 4, "material": 1 }
      ]
    },
    {
      "primitives": [
        { "attributes": { "POSITION": 7 }, "indices": 6, "material": 2 }
      ]
    },
    {
      "primitives": [
        { "attributes": { "POSITION": 9 }, "indices": 8, "material": 2 }
      ]
    },
    {
      "primitives": [
        { "attributes": { "POSITION": 11 }, "indices": 10, "material": 2 }
      ]
    }
  ],
  "nodes": [
    { "name": "Concrete Base" },
    { "name": "Tower", "mesh": 1 },
    {
      "name": "Generator House",
      "children": [4, 5],
      "extras": { "componentMeshes": ["nacelle", "hub"] }
    },
    { "name": "Rotor Blades", "children": [6, 7, 8] },
    { "name": "Nacelle", "mesh": 0 },
    { "name": "Hub", "mesh": 2 },
    { "name": "Rotor Blade A", "mesh": 3 },
    { "name": "Rotor Blade B", "mesh": 4 },
    { "name": "Rotor Blade C", "mesh": 5 },
    {
      "translation": [11.00635051727295, 6.493649005889893, 1.0063508749008179],
      "camera": 0,
      "name": "Default"
    },
    {
      "translation": [
        108.10101318359375, -102.24955749511719, 127.47276306152344
      ],
      "camera": 1,
      "name": "Export"
    }
  ],
  "scenes": [{ "nodes": [0, 1, 2, 3, 4, 5, 6, 7, 8, 9, 10] }],
  "scene": 0
}
